0
SECTION
2
HEADER
9
$ACADVER
1
AC1021
9
$LASTSAVEDBY
1
@tarikjabiri/dxf
9
$HANDSEED
5
38
9
$INSUNITS
70
1
9
$CLAYER
8
TRUELINE-TEXT
9
$EXTMIN
10
-54
20
-108
30
0
9
$EXTMAX
10
309.8219692913386
20
288
30
0
9
$LIMMIN
10
-54
20
-108
9
$LIMMAX
10
309.8219692913386
20
288
9
$VIEWCTR
10
64.41098464566929
20
18.400000000000006
0
ENDSEC
0
SECTION
2
CLASSES
0
ENDSEC
0
SECTION
2
TABLES
0
TABLE
2
VPORT
5
1
330
0
100
AcDbSymbolTable
70
1
0
VPORT
5
19
330
1
100
AcDbSymbolTableRecord
100
AcDbViewportTableRecord
2
*Active
70
0
10
0
20
0
11
1
21
1
12
64.41098464566929
22
18.400000000000006
13
0
23
0
14
10
24
10
15
10
25
10
16
0
26
0
36
1
17
0
27
0
37
0
40
431.2
41
2
42
50
43
0
44
0
50
0
51
0
71
0
72
100
73
1
74
3
75
0
76
1
77
0
78
0
281
0
65
1
110
0
120
0
130
0
111
1
121
0
131
0
112
0
122
1
132
0
79
0
146
0
348
10020
60
7
61
5
292
1
282
1
141
0
142
0
63
250
421
3358443
0
ENDTAB
0
TABLE
2
LTYPE
5
2
330
0
100
AcDbSymbolTable
70
3
0
LTYPE
5
12
330
2
100
AcDbSymbolTableRecord
100
AcDbLinetypeTableRecord
2
ByBlock
70
0
3

72
65
73
0
40
0
0
LTYPE
5
13
330
2
100
AcDbSymbolTableRecord
100
AcDbLinetypeTableRecord
2
ByLayer
70
0
3

72
65
73
0
40
0
0
LTYPE
5
14
330
2
100
AcDbSymbolTableRecord
100
AcDbLinetypeTableRecord
2
Continuous
70
0
3
Solid line
72
65
73
0
40
0
0
ENDTAB
0
TABLE
2
LAYER
5
3
330
0
100
AcDbSymbolTable
70
7
0
LAYER
5
15
330
3
100
AcDbSymbolTableRecord
100
AcDbLayerTableRecord
2
0
70
0
62
7
6
Continuous
370
0
390
0
0
LAYER
5
1B
330
3
100
AcDbSymbolTableRecord
100
AcDbLayerTableRecord
2
TRUELINE-WALLS
70
0
62
7
6
Continuous
370
0
390
0
0
LAYER
5
1C
330
3
100
AcDbSymbolTableRecord
100
AcDbLayerTableRecord
2
TRUELINE-OPENINGS
70
0
62
4
6
Continuous
370
0
390
0
0
LAYER
5
1D
330
3
100
AcDbSymbolTableRecord
100
AcDbLayerTableRecord
2
TRUELINE-OPEN-SPAN
70
0
62
6
6
Continuous
370
0
390
0
0
LAYER
5
1E
330
3
100
AcDbSymbolTableRecord
100
AcDbLayerTableRecord
2
TRUELINE-TEXT
70
0
62
7
6
Continuous
370
0
390
0
0
LAYER
5
1F
330
3
100
AcDbSymbolTableRecord
100
AcDbLayerTableRecord
2
DIM-VERIFIED
70
0
62
3
6
Continuous
370
0
390
0
0
LAYER
5
20
330
3
100
AcDbSymbolTableRecord
100
AcDbLayerTableRecord
2
DIM-SCANNED
70
0
62
2
6
Continuous
370
0
390
0
0
ENDTAB
0
TABLE
2
STYLE
5
4
330
0
100
AcDbSymbolTable
70
1
0
STYLE
5
16
330
4
100
AcDbSymbolTableRecord
100
AcDbTextStyleTableRecord
2
Standard
70
0
40
0
41
1
50
0
71
0
42
1
3
txt
4

0
ENDTAB
0
TABLE
2
VIEW
5
5
330
0
100
AcDbSymbolTable
70
0
0
ENDTAB
0
TABLE
2
UCS
5
6
330
0
100
AcDbSymbolTable
70
0
0
ENDTAB
0
TABLE
2
APPID
5
7
330
0
100
AcDbSymbolTable
70
1
0
APPID
5
17
330
7
100
AcDbSymbolTableRecord
100
AcDbRegAppTableRecord
2
ACAD
70
0
0
ENDTAB
0
TABLE
2
DIMSTYLE
5
8
330
0
100
AcDbSymbolTable
70
2
100
AcDbDimStyleTable
0
DIMSTYLE
105
18
330
8
100
AcDbSymbolTableRecord
100
AcDbDimStyleTableRecord
2
Standard
70
0
340
16
0
DIMSTYLE
105
1A
330
8
100
AcDbSymbolTableRecord
100
AcDbDimStyleTableRecord
2
TRUELINE
70
0
41
3
42
1
44
1.6
140
4
147
1
271
2
0
ENDTAB
0
TABLE
2
BLOCK_RECORD
5
9
330
0
100
AcDbSymbolTable
70
2
0
BLOCK_RECORD
5
C
330
9
100
AcDbSymbolTableRecord
100
AcDbBlockTableRecord
2
*Model_Space
70
0
280
1
281
0
0
BLOCK_RECORD
5
F
330
9
100
AcDbSymbolTableRecord
100
AcDbBlockTableRecord
2
*Paper_Space
70
0
280
1
281
0
0
BLOCK_RECORD
5
1009
100
AcDbSymbolTableRecord
100
AcDbBlockTableRecord
2
*D1
70
0
0
BLOCK_RECORD
5
1014
100
AcDbSymbolTableRecord
100
AcDbBlockTableRecord
2
*D2
70
0
0
BLOCK_RECORD
5
101F
100
AcDbSymbolTableRecord
100
AcDbBlockTableRecord
2
*D3
70
0
0
BLOCK_RECORD
5
102A
100
AcDbSymbolTableRecord
100
AcDbBlockTableRecord
2
*D4
70
0
0
ENDTAB
0
ENDSEC
0
SECTION
2
BLOCKS
0
BLOCK
5
D
330
C
100
AcDbEntity
8
TRUELINE-TEXT
100
AcDbBlockBegin
2
*Model_Space
70
0
10
0
20
0
30
0
3
*Model_Space
1

0
ENDBLK
5
E
100
AcDbEntity
8
0
100
AcDbBlockEnd
0
BLOCK
5
10
330
F
100
AcDbEntity
8
0
100
AcDbBlockBegin
2
*Paper_Space
70
0
10
0
20
0
30
0
3
*Paper_Space
1

0
ENDBLK
5
11
100
AcDbEntity
8
0
100
AcDbBlockEnd
0
BLOCK
5
100A
100
AcDbEntity
8
DIM-VERIFIED
100
AcDbBlockBegin
2
*D1
70
1
10
0
20
0
30
0
3
*D1
1

0
LINE
5
1001
100
AcDbEntity
8
DIM-VERIFIED
100
AcDbLine
10
0
20
0
30
0
11
-19.6
21
1.1993503566015205e-15
31
0
0
LINE
5
1002
100
AcDbEntity
8
DIM-VERIFIED
100
AcDbLine
10
0
20
234
30
0
11
-19.599999999999987
21
234
31
0
0
LINE
5
1003
100
AcDbEntity
8
DIM-VERIFIED
100
AcDbLine
10
-18
20
1.102182119232618e-15
30
0
11
-17.999999999999986
21
234
31
0
0
LINE
5
1004
100
AcDbEntity
8
DIM-VERIFIED
100
AcDbLine
10
-18
20
1.102182119232618e-15
30
0
11
-17.46
21
3.000000000000001
31
0
0
LINE
5
1005
100
AcDbEntity
8
DIM-VERIFIED
100
AcDbLine
10
-18
20
1.102182119232618e-15
30
0
11
-18.54
21
3.000000000000001
31
0
0
LINE
5
1006
100
AcDbEntity
8
DIM-VERIFIED
100
AcDbLine
10
-17.999999999999986
20
234
30
0
11
-18.539999999999985
21
231
31
0
0
LINE
5
1007
100
AcDbEntity
8
DIM-VERIFIED
100
AcDbLine
10
-17.999999999999986
20
234
30
0
11
-17.459999999999987
21
231
31
0
0
TEXT
5
1008
100
AcDbEntity
8
DIM-VERIFIED
100
AcDbText
10
-20.8
20
117
30
0
40
4
1
234.00
50
90
72
1
73
2
11
-20.8
21
117
31
0
100
AcDbText
0
ENDBLK
5
100B
100
AcDbEntity
8
DIM-VERIFIED
100
AcDbBlockEnd
0
BLOCK
5
1015
100
AcDbEntity
8
DIM-SCANNED
100
AcDbBlockBegin
2
*D2
70
1
10
0
20
0
30
0
3
*D2
1

0
LINE
5
100C
100
AcDbEntity
8
DIM-SCANNED
100
AcDbLine
10
0
20
234
30
0
11
0
21
253.6
31
0
0
LINE
5
100D
100
AcDbEntity
8
DIM-SCANNED
100
AcDbLine
10
255.82196929133858
20
234
30
0
11
255.82196929133858
21
253.6
31
0
0
LINE
5
100E
100
AcDbEntity
8
DIM-SCANNED
100
AcDbLine
10
0
20
252
30
0
11
255.82196929133858
21
252
31
0
0
LINE
5
100F
100
AcDbEntity
8
DIM-SCANNED
100
AcDbLine
10
0
20
252
30
0
11
3
21
251.46
31
0
0
LINE
5
1010
100
AcDbEntity
8
DIM-SCANNED
100
AcDbLine
10
0
20
252
30
0
11
3
21
252.54
31
0
0
LINE
5
1011
100
AcDbEntity
8
DIM-SCANNED
100
AcDbLine
10
255.82196929133858
20
252
30
0
11
252.82196929133858
21
252.54
31
0
0
LINE
5
1012
100
AcDbEntity
8
DIM-SCANNED
100
AcDbLine
10
255.82196929133858
20
252
30
0
11
252.82196929133858
21
251.46
31
0
0
TEXT
5
1013
100
AcDbEntity
8
DIM-SCANNED
100
AcDbText
10
127.91098464566929
20
254.8
30
0
40
4
1
255.82
50
0
72
1
73
2
11
127.91098464566929
21
254.8
31
0
100
AcDbText
0
ENDBLK
5
1016
100
AcDbEntity
8
DIM-SCANNED
100
AcDbBlockEnd
0
BLOCK
5
1020
100
AcDbEntity
8
DIM-SCANNED
100
AcDbBlockBegin
2
*D3
70
1
10
0
20
0
30
0
3
*D3
1

0
LINE
5
1017
100
AcDbEntity
8
DIM-SCANNED
100
AcDbLine
10
255.82196929133858
20
234
30
0
11
275.4219692913386
21
234
31
0
0
LINE
5
1018
100
AcDbEntity
8
DIM-SCANNED
100
AcDbLine
10
255.82196929133858
20
0
30
0
11
275.4219692913386
21
0
31
0
0
LINE
5
1019
100
AcDbEntity
8
DIM-SCANNED
100
AcDbLine
10
273.8219692913386
20
234
30
0
11
273.8219692913386
21
0
31
0
0
LINE
5
101A
100
AcDbEntity
8
DIM-SCANNED
100
AcDbLine
10
273.8219692913386
20
234
30
0
11
273.28196929133856
21
231
31
0
0
LINE
5
101B
100
AcDbEntity
8
DIM-SCANNED
100
AcDbLine
10
273.8219692913386
20
234
30
0
11
274.3619692913386
21
231
31
0
0
LINE
5
101C
100
AcDbEntity
8
DIM-SCANNED
100
AcDbLine
10
273.8219692913386
20
0
30
0
11
274.3619692913386
21
3
31
0
0
LINE
5
101D
100
AcDbEntity
8
DIM-SCANNED
100
AcDbLine
10
273.8219692913386
20
0
30
0
11
273.28196929133856
21
3
31
0
0
TEXT
5
101E
100
AcDbEntity
8
DIM-SCANNED
100
AcDbText
10
276.6219692913386
20
117
30
0
40
4
1
234.00
50
-90
72
1
73
2
11
276.6219692913386
21
117
31
0
100
AcDbText
0
ENDBLK
5
1021
100
AcDbEntity
8
DIM-SCANNED
100
AcDbBlockEnd
0
BLOCK
5
102B
100
AcDbEntity
8
DIM-SCANNED
100
AcDbBlockBegin
2
*D4
70
1
10
0
20
0
30
0
3
*D4
1

0
LINE
5
1022
100
AcDbEntity
8
DIM-SCANNED
100
AcDbLine
10
255.82196929133858
20
0
30
0
11
255.82196929133858
21
-19.6
31
0
0
LINE
5
1023
100
AcDbEntity
8
DIM-SCANNED
100
AcDbLine
10
0
20
0
30
0
11
-1.999792164701287e-16
21
-19.59999999999997
31
0
0
LINE
5
1024
100
AcDbEntity
8
DIM-SCANNED
100
AcDbLine
10
255.82196929133858
20
-18
30
0
11
0
21
-17.999999999999968
31
0
0
LINE
5
1025
100
AcDbEntity
8
DIM-SCANNED
100
AcDbLine
10
255.82196929133858
20
-18
30
0
11
252.82196929133858
21
-17.46
31
0
0
LINE
5
1026
100
AcDbEntity
8
DIM-SCANNED
100
AcDbLine
10
255.82196929133858
20
-18
30
0
11
252.82196929133858
21
-18.54
31
0
0
LINE
5
1027
100
AcDbEntity
8
DIM-SCANNED
100
AcDbLine
10
0
20
-17.999999999999968
30
0
11
3
21
-18.539999999999967
31
0
0
LINE
5
1028
100
AcDbEntity
8
DIM-SCANNED
100
AcDbLine
10
0
20
-17.999999999999968
30
0
11
3
21
-17.45999999999997
31
0
0
TEXT
5
1029
100
AcDbEntity
8
DIM-SCANNED
100
AcDbText
10
127.91098464566929
20
-20.8
30
0
40
4
1
255.82
50
0
72
1
73
2
11
127.91098464566929
21
-20.8
31
0
100
AcDbText
0
ENDBLK
5
102C
100
AcDbEntity
8
DIM-SCANNED
100
AcDbBlockEnd
0
ENDSEC
0
SECTION
2
ENTITIES
0
LINE
5
21
330
C
100
AcDbEntity
8
TRUELINE-WALLS
100
AcDbLine
10
0
20
0
30
0
11
0
21
15.521023582677165
31
0
0
LINE
5
22
330
C
100
AcDbEntity
8
TRUELINE-OPENINGS
100
AcDbLine
10
0
20
15.521023582677165
30
0
11
0
21
219.3638188582677
31
0
0
LINE
5
23
330
C
100
AcDbEntity
8
TRUELINE-WALLS
100
AcDbLine
10
0
20
219.3638188582677
30
0
11
0
21
234
31
0
0
LINE
5
24
330
C
100
AcDbEntity
8
TRUELINE-WALLS
100
AcDbLine
10
0
20
234
30
0
11
82.79952192913386
21
234
31
0
0
LINE
5
25
330
C
100
AcDbEntity
8
TRUELINE-OPENINGS
100
AcDbLine
10
82.79952192913386
20
234
30
0
11
114.77728570866141
21
234
31
0
0
LINE
5
26
330
C
100
AcDbEntity
8
TRUELINE-WALLS
100
AcDbLine
10
114.77728570866141
20
234
30
0
11
199.28989523622047
21
234
31
0
0
LINE
5
27
330
C
100
AcDbEntity
8
TRUELINE-OPENINGS
100
AcDbLine
10
199.28989523622047
20
234
30
0
11
228.4124818503937
21
234
31
0
0
LINE
5
28
330
C
100
AcDbEntity
8
TRUELINE-WALLS
100
AcDbLine
10
228.4124818503937
20
234
30
0
11
255.82196929133858
21
234
31
0
0
LINE
5
29
330
C
100
AcDbEntity
8
TRUELINE-WALLS
100
AcDbLine
10
255.82196929133858
20
234
30
0
11
255.82196929133858
21
0
31
0
0
LINE
5
2A
330
C
100
AcDbEntity
8
TRUELINE-WALLS
100
AcDbLine
10
255.82196929133858
20
0
30
0
11
151.89431059055119
21
0
31
0
0
LINE
5
2B
330
C
100
AcDbEntity
8
TRUELINE-OPENINGS
100
AcDbLine
10
151.89431059055119
20
0
30
0
11
100.50153106299211
21
0
31
0
0
LINE
5
2C
330
C
100
AcDbEntity
8
TRUELINE-WALLS
100
AcDbLine
10
100.50153106299211
20
0
30
0
11
0
21
0
31
0
0
DIMENSION
5
2D
330
C
100
AcDbEntity
8
DIM-VERIFIED
100
AcDbDimension
2
*D1
10
-18
20
0
30
0
11
-18
21
117
31
0
70
1
71
5
1
<>
3
TRUELINE
100
AcDbAlignedDimension
13
0
23
0
33
0
14
0
24
234
34
0
0
DIMENSION
5
2E
330
C
100
AcDbEntity
8
DIM-SCANNED
100
AcDbDimension
2
*D2
10
0
20
252
30
0
11
127.91098464566929
21
252
31
0
70
1
71
5
1
<>
3
TRUELINE
100
AcDbAlignedDimension
13
0
23
234
33
0
14
255.82196929133858
24
234
34
0
0
DIMENSION
5
2F
330
C
100
AcDbEntity
8
DIM-SCANNED
100
AcDbDimension
2
*D3
10
273.8219692913386
20
234
30
0
11
273.8219692913386
21
117
31
0
70
1
71
5
1
<>
3
TRUELINE
100
AcDbAlignedDimension
13
255.82196929133858
23
234
33
0
14
255.82196929133858
24
0
34
0
0
DIMENSION
5
30
330
C
100
AcDbEntity
8
DIM-SCANNED
100
AcDbDimension
2
*D4
10
255.82196929133858
20
-18
30
0
11
127.91098464566929
21
-18
31
0
70
1
71
5
1
<>
3
TRUELINE
100
AcDbAlignedDimension
13
255.82196929133858
23
0
33
0
14
0
24
0
34
0
0
TEXT
5
31
330
C
100
AcDbEntity
8
TRUELINE-TEXT
100
AcDbText
10
-27
20
-54
30
0
40
6
1
Garage
7
STANDARD
100
AcDbText
0
TEXT
5
32
330
C
100
AcDbEntity
8
TRUELINE-TEXT
100
AcDbText
10
-27
20
-61.2
30
0
40
4
1
415.7 sq ft
7
STANDARD
100
AcDbText
0
TEXT
5
33
330
C
100
AcDbEntity
8
TRUELINE-TEXT
100
AcDbText
10
-27
20
-68.4
30
0
40
4
1
SCANNED - no wall here has had a tape on it. These numbers will move.
7
STANDARD
100
AcDbText
0
TEXT
5
34
330
C
100
AcDbEntity
8
TRUELINE-TEXT
100
AcDbText
10
-27
20
-75.6
30
0
40
4
1
Scanned — not checked
7
STANDARD
100
AcDbText
0
TEXT
5
35
330
C
100
AcDbEntity
8
TRUELINE-TEXT
100
AcDbText
10
-27
20
-82.8
30
0
40
4
1
Ceiling 7' 4 3/16"
7
STANDARD
100
AcDbText
0
TEXT
5
36
330
C
100
AcDbEntity
8
TRUELINE-TEXT
100
AcDbText
10
-27
20
-90
30
0
40
4
1
Green dimensions were measured. Yellow ones are the scanner’s.
7
STANDARD
100
AcDbText
0
TEXT
5
37
330
C
100
AcDbEntity
8
TRUELINE-TEXT
100
AcDbText
10
-27
20
-97.2
30
0
40
4
1
Gilbert Remodeling — with Trueline, 25 Aug 2026
7
STANDARD
100
AcDbText
0
ENDSEC
0
SECTION
2
OBJECTS
0
DICTIONARY
5
A
330
0
100
AcDbDictionary
281
1
3
ACAD_GROUP
350
B
0
DICTIONARY
5
B
330
A
100
AcDbDictionary
281
0
0
ENDSEC
0
EOF
