0
SECTION
2
HEADER
9
$ACADVER
1
AC1021
9
$LASTSAVEDBY
1
@tarikjabiri/dxf
9
$HANDSEED
5
22
9
$INSUNITS
70
1
9
$CLAYER
8
DIM-SCANNED
9
$EXTMIN
10
-30
20
-30
30
0
9
$EXTMAX
10
165
20
105
30
0
9
$LIMMIN
10
-30
20
-30
9
$LIMMAX
10
165
20
105
9
$VIEWCTR
10
24.25
20
0
0
ENDSEC
0
SECTION
2
CLASSES
0
ENDSEC
0
SECTION
2
TABLES
0
TABLE
2
VPORT
5
1
330
0
100
AcDbSymbolTable
70
1
0
VPORT
5
19
330
1
100
AcDbSymbolTableRecord
100
AcDbViewportTableRecord
2
*Active
70
0
10
0
20
0
11
1
21
1
12
24.25
22
0
13
0
23
0
14
10
24
10
15
10
25
10
16
0
26
0
36
1
17
0
27
0
37
0
40
200
41
2
42
50
43
0
44
0
50
0
51
0
71
0
72
100
73
1
74
3
75
0
76
1
77
0
78
0
281
0
65
1
110
0
120
0
130
0
111
1
121
0
131
0
112
0
122
1
132
0
79
0
146
0
348
10020
60
7
61
5
292
1
282
1
141
0
142
0
63
250
421
3358443
0
ENDTAB
0
TABLE
2
LTYPE
5
2
330
0
100
AcDbSymbolTable
70
3
0
LTYPE
5
12
330
2
100
AcDbSymbolTableRecord
100
AcDbLinetypeTableRecord
2
ByBlock
70
0
3

72
65
73
0
40
0
0
LTYPE
5
13
330
2
100
AcDbSymbolTableRecord
100
AcDbLinetypeTableRecord
2
ByLayer
70
0
3

72
65
73
0
40
0
0
LTYPE
5
14
330
2
100
AcDbSymbolTableRecord
100
AcDbLinetypeTableRecord
2
Continuous
70
0
3
Solid line
72
65
73
0
40
0
0
ENDTAB
0
TABLE
2
LAYER
5
3
330
0
100
AcDbSymbolTable
70
4
0
LAYER
5
15
330
3
100
AcDbSymbolTableRecord
100
AcDbLayerTableRecord
2
0
70
0
62
7
6
Continuous
370
0
390
0
0
LAYER
5
1B
330
3
100
AcDbSymbolTableRecord
100
AcDbLayerTableRecord
2
TRUELINE-WALLS
70
0
62
7
6
Continuous
370
0
390
0
0
LAYER
5
1C
330
3
100
AcDbSymbolTableRecord
100
AcDbLayerTableRecord
2
DIM-VERIFIED
70
0
62
3
6
Continuous
370
0
390
0
0
LAYER
5
1D
330
3
100
AcDbSymbolTableRecord
100
AcDbLayerTableRecord
2
DIM-SCANNED
70
0
62
2
6
Continuous
370
0
390
0
0
ENDTAB
0
TABLE
2
STYLE
5
4
330
0
100
AcDbSymbolTable
70
1
0
STYLE
5
16
330
4
100
AcDbSymbolTableRecord
100
AcDbTextStyleTableRecord
2
Standard
70
0
40
0
41
1
50
0
71
0
42
1
3
txt
4

0
ENDTAB
0
TABLE
2
VIEW
5
5
330
0
100
AcDbSymbolTable
70
0
0
ENDTAB
0
TABLE
2
UCS
5
6
330
0
100
AcDbSymbolTable
70
0
0
ENDTAB
0
TABLE
2
APPID
5
7
330
0
100
AcDbSymbolTable
70
1
0
APPID
5
17
330
7
100
AcDbSymbolTableRecord
100
AcDbRegAppTableRecord
2
ACAD
70
0
0
ENDTAB
0
TABLE
2
DIMSTYLE
5
8
330
0
100
AcDbSymbolTable
70
2
100
AcDbDimStyleTable
0
DIMSTYLE
105
18
330
8
100
AcDbSymbolTableRecord
100
AcDbDimStyleTableRecord
2
Standard
70
0
340
16
0
DIMSTYLE
105
1A
330
8
100
AcDbSymbolTableRecord
100
AcDbDimStyleTableRecord
2
TRUELINE
70
0
41
3
42
1
44
1.5
140
4
147
1
271
2
0
ENDTAB
0
TABLE
2
BLOCK_RECORD
5
9
330
0
100
AcDbSymbolTable
70
2
0
BLOCK_RECORD
5
C
330
9
100
AcDbSymbolTableRecord
100
AcDbBlockTableRecord
2
*Model_Space
70
0
280
1
281
0
0
BLOCK_RECORD
5
F
330
9
100
AcDbSymbolTableRecord
100
AcDbBlockTableRecord
2
*Paper_Space
70
0
280
1
281
0
0
BLOCK_RECORD
5
1009
100
AcDbSymbolTableRecord
100
AcDbBlockTableRecord
2
*D1
70
0
0
BLOCK_RECORD
5
1014
100
AcDbSymbolTableRecord
100
AcDbBlockTableRecord
2
*D2
70
0
0
BLOCK_RECORD
5
101F
100
AcDbSymbolTableRecord
100
AcDbBlockTableRecord
2
*D3
70
0
0
ENDTAB
0
ENDSEC
0
SECTION
2
BLOCKS
0
BLOCK
5
D
330
C
100
AcDbEntity
8
DIM-SCANNED
100
AcDbBlockBegin
2
*Model_Space
70
0
10
0
20
0
30
0
3
*Model_Space
1

0
ENDBLK
5
E
100
AcDbEntity
8
0
100
AcDbBlockEnd
0
BLOCK
5
10
330
F
100
AcDbEntity
8
0
100
AcDbBlockBegin
2
*Paper_Space
70
0
10
0
20
0
30
0
3
*Paper_Space
1

0
ENDBLK
5
11
100
AcDbEntity
8
0
100
AcDbBlockEnd
0
BLOCK
5
100A
100
AcDbEntity
8
DIM-VERIFIED
100
AcDbBlockBegin
2
*D1
70
1
10
0
20
0
30
0
3
*D1
1

0
LINE
5
1001
100
AcDbEntity
8
DIM-VERIFIED
100
AcDbLine
10
0
20
0
30
0
11
0
21
25.5
31
0
0
LINE
5
1002
100
AcDbEntity
8
DIM-VERIFIED
100
AcDbLine
10
148.5
20
0
30
0
11
148.5
21
25.5
31
0
0
LINE
5
1003
100
AcDbEntity
8
DIM-VERIFIED
100
AcDbLine
10
0
20
24
30
0
11
148.5
21
24
31
0
0
LINE
5
1004
100
AcDbEntity
8
DIM-VERIFIED
100
AcDbLine
10
0
20
24
30
0
11
3
21
23.46
31
0
0
LINE
5
1005
100
AcDbEntity
8
DIM-VERIFIED
100
AcDbLine
10
0
20
24
30
0
11
3
21
24.54
31
0
0
LINE
5
1006
100
AcDbEntity
8
DIM-VERIFIED
100
AcDbLine
10
148.5
20
24
30
0
11
145.5
21
24.54
31
0
0
LINE
5
1007
100
AcDbEntity
8
DIM-VERIFIED
100
AcDbLine
10
148.5
20
24
30
0
11
145.5
21
23.46
31
0
0
TEXT
5
1008
100
AcDbEntity
8
DIM-VERIFIED
100
AcDbText
10
74.25
20
27.5
30
0
40
5
1
148.50
50
0
72
1
73
2
11
74.25
21
27.5
31
0
100
AcDbText
0
ENDBLK
5
100B
100
AcDbEntity
8
DIM-VERIFIED
100
AcDbBlockEnd
0
BLOCK
5
1015
100
AcDbEntity
8
DIM-SCANNED
100
AcDbBlockBegin
2
*D2
70
1
10
0
20
0
30
0
3
*D2
1

0
LINE
5
100C
100
AcDbEntity
8
DIM-SCANNED
100
AcDbLine
10
0
20
0
30
0
11
-25.5
21
1.5805984614393394e-15
31
0
0
LINE
5
100D
100
AcDbEntity
8
DIM-SCANNED
100
AcDbLine
10
0
20
96
30
0
11
-25.499999999999993
21
96
31
0
0
LINE
5
100E
100
AcDbEntity
8
DIM-SCANNED
100
AcDbLine
10
-24
20
1.4695761589768238e-15
30
0
11
-23.999999999999993
21
96
31
0
0
LINE
5
100F
100
AcDbEntity
8
DIM-SCANNED
100
AcDbLine
10
-24
20
1.4695761589768238e-15
30
0
11
-23.46
21
3.0000000000000013
31
0
0
LINE
5
1010
100
AcDbEntity
8
DIM-SCANNED
100
AcDbLine
10
-24
20
1.4695761589768238e-15
30
0
11
-24.54
21
3.0000000000000013
31
0
0
LINE
5
1011
100
AcDbEntity
8
DIM-SCANNED
100
AcDbLine
10
-23.999999999999993
20
96
30
0
11
-24.539999999999992
21
93
31
0
0
LINE
5
1012
100
AcDbEntity
8
DIM-SCANNED
100
AcDbLine
10
-23.999999999999993
20
96
30
0
11
-23.459999999999994
21
93
31
0
0
TEXT
5
1013
100
AcDbEntity
8
DIM-SCANNED
100
AcDbText
10
-27.5
20
48
30
0
40
5
1
96.00
50
90
72
1
73
2
11
-27.5
21
48
31
0
100
AcDbText
0
ENDBLK
5
1016
100
AcDbEntity
8
DIM-SCANNED
100
AcDbBlockEnd
0
BLOCK
5
1020
100
AcDbEntity
8
DIM-SCANNED
100
AcDbBlockBegin
2
*D3
70
1
10
0
20
0
30
0
3
*D3
1

0
LINE
5
1017
100
AcDbEntity
8
DIM-SCANNED
100
AcDbLine
10
0
20
0
30
0
11
6.3000000000000025
21
-8.400000000000002
31
0
0
LINE
5
1018
100
AcDbEntity
8
DIM-SCANNED
100
AcDbLine
10
120
20
90
30
0
11
126.30000000000001
21
81.6
31
0
0
LINE
5
1019
100
AcDbEntity
8
DIM-SCANNED
100
AcDbLine
10
7.200000000000003
20
-9.600000000000001
30
0
11
127.20000000000002
21
80.39999999999999
31
0
0
LINE
5
101A
100
AcDbEntity
8
DIM-SCANNED
100
AcDbLine
10
7.200000000000003
20
-9.600000000000001
30
0
11
9.924000000000003
21
-8.232000000000001
31
0
0
LINE
5
101B
100
AcDbEntity
8
DIM-SCANNED
100
AcDbLine
10
7.200000000000003
20
-9.600000000000001
30
0
11
9.276000000000003
21
-7.368000000000001
31
0
0
LINE
5
101C
100
AcDbEntity
8
DIM-SCANNED
100
AcDbLine
10
127.20000000000002
20
80.39999999999999
30
0
11
124.47600000000001
21
79.032
31
0
0
LINE
5
101D
100
AcDbEntity
8
DIM-SCANNED
100
AcDbLine
10
127.20000000000002
20
80.39999999999999
30
0
11
125.12400000000001
21
78.16799999999999
31
0
0
TEXT
5
101E
100
AcDbEntity
8
DIM-SCANNED
100
AcDbText
10
50.699999999999996
20
57.4
30
0
40
5
1
150.00
50
36.86989764584402
72
1
73
2
11
50.699999999999996
21
57.4
31
0
100
AcDbText
0
ENDBLK
5
1021
100
AcDbEntity
8
DIM-SCANNED
100
AcDbBlockEnd
0
ENDSEC
0
SECTION
2
ENTITIES
0
LINE
5
1E
330
C
100
AcDbEntity
8
TRUELINE-WALLS
100
AcDbLine
10
0
20
0
30
0
11
148.5
21
0
31
0
0
DIMENSION
5
1F
330
C
100
AcDbEntity
8
DIM-VERIFIED
100
AcDbDimension
2
*D1
10
0
20
24
30
0
11
74.25
21
24
31
0
70
0
71
5
1
<>
3
TRUELINE
100
AcDbAlignedDimension
13
0
23
0
33
0
14
148.5
24
0
34
0
50
0
100
AcDbRotatedDimension
0
DIMENSION
5
20
330
C
100
AcDbEntity
8
DIM-SCANNED
100
AcDbDimension
2
*D2
10
-24
20
0
30
0
11
-24
21
48
31
0
70
0
71
5
1
<>
3
TRUELINE
100
AcDbAlignedDimension
13
0
23
0
33
0
14
0
24
96
34
0
50
90
100
AcDbRotatedDimension
0
DIMENSION
5
21
330
C
100
AcDbEntity
8
DIM-SCANNED
100
AcDbDimension
2
*D3
10
-15
20
-26.25
30
0
11
52.8
21
54.6
31
0
70
1
71
5
1
<>
3
TRUELINE
100
AcDbAlignedDimension
13
0
23
0
33
0
14
120
24
90
34
0
0
ENDSEC
0
SECTION
2
OBJECTS
0
DICTIONARY
5
A
330
0
100
AcDbDictionary
281
1
3
ACAD_GROUP
350
B
0
DICTIONARY
5
B
330
A
100
AcDbDictionary
281
0
0
ENDSEC
0
EOF
